<svg width="16" height="16" viewBox="0 0 16 16" fill="none" xmlns="http://www.w3.org/2000/svg">
<path d="M8 16C12.4183 16 16 12.4183 16 8C16 3.58172 12.4183 0 8 0C3.58172 0 0 3.58172 0 8C0 12.4183 3.58172 16 8 16Z" fill="#002AD1"/>
<path fill-rule="evenodd" clip-rule="evenodd" d="M4.65852 3.63672C4.78384 3.6369 4.90683 3.67071 5.01464 3.73461V3.73461C5.08232 3.77492 5.14278 3.82626 5.19354 3.88651H10.6518C10.9858 3.88571 11.3088 4.00558 11.5615 4.22406V4.22406L11.6256 4.2882C11.7549 4.41661 11.8574 4.5694 11.9273 4.73772C11.9971 4.90605 12.0328 5.08656 12.0324 5.26879V7.06794C12.0328 7.25017 11.9971 7.43068 11.9273 7.599C11.8574 7.76733 11.7549 7.92012 11.6256 8.04853L11.5615 8.11267C11.4482 8.21151 11.3201 8.29183 11.1817 8.35064C11.0135 8.41962 10.8335 8.45516 10.6518 8.45528H5.34206C5.28403 8.45744 5.22687 8.47002 5.17329 8.49242C5.11427 8.51697 5.06044 8.55247 5.01464 8.59706V8.59706C4.9691 8.64178 4.93295 8.69514 4.90831 8.75402C4.88165 8.81407 4.86785 8.87903 4.8678 8.94474V10.7338C4.86717 10.7968 4.87923 10.8594 4.90324 10.9177C4.9394 11.007 5.00152 11.0834 5.08156 11.1369C5.1616 11.1905 5.25588 11.2188 5.35219 11.2182H10.802C10.8532 11.1588 10.9136 11.1081 10.9809 11.0679C11.1137 10.99 11.2685 10.9583 11.4213 10.9778C11.574 10.9974 11.7159 11.0671 11.8248 11.176C11.8894 11.2404 11.9408 11.3169 11.9758 11.4012C12.0109 11.4855 12.0289 11.5758 12.029 11.6671C12.0286 11.8519 11.9552 12.029 11.8248 12.1599V12.1599C11.7606 12.2249 11.6841 12.2764 11.5998 12.3115C11.5154 12.3466 11.425 12.3645 11.3336 12.3641C11.2109 12.3637 11.0905 12.3311 10.9843 12.2696C10.9171 12.2307 10.8571 12.1804 10.807 12.1211H5.35219C5.17039 12.1213 4.99032 12.0857 4.82223 12.0165C4.65389 11.9459 4.50085 11.8433 4.3716 11.7144V11.7144C4.2423 11.5859 4.13976 11.4332 4.06994 11.2648C4.00012 11.0965 3.9644 10.916 3.96485 10.7338V8.94474C3.9644 8.76251 4.00012 8.582 4.06994 8.41367C4.13976 8.24535 4.2423 8.09255 4.3716 7.96414V7.96414C4.50092 7.83574 4.65397 7.73371 4.82223 7.66372C4.98991 7.59292 5.17018 7.55675 5.35219 7.55739H10.6602C10.7223 7.55591 10.7836 7.54274 10.8408 7.51858C10.8888 7.4947 10.9326 7.46337 10.9708 7.42575L10.9876 7.40887C11.0328 7.36321 11.0689 7.30937 11.094 7.25022C11.1204 7.19284 11.1358 7.13101 11.1395 7.06794V5.27385C11.1393 5.21086 11.1272 5.14847 11.1041 5.08988C11.0784 5.03105 11.0424 4.97731 10.9978 4.93123L10.9809 4.91604C10.9395 4.87778 10.8915 4.84746 10.8391 4.82659C10.7809 4.802 10.7183 4.78937 10.6551 4.78946H5.18173C5.131 4.84722 5.07113 4.89625 5.00451 4.93461C4.90228 4.99529 4.78583 5.02789 4.66696 5.02912C4.5754 5.02929 4.48471 5.01133 4.40013 4.97628C4.31554 4.94123 4.23873 4.88978 4.17413 4.8249C4.10947 4.76032 4.05818 4.68363 4.02318 4.59921C3.98819 4.51479 3.97017 4.42431 3.97017 4.33292C3.97017 4.24154 3.98819 4.15105 4.02318 4.06663C4.05818 3.98221 4.10947 3.90552 4.17413 3.84094C4.30521 3.71098 4.48238 3.63817 4.66696 3.63841" fill="white"/>
</svg>
